<svg xmlns="http://www.w3.org/2000/svg" version="1.1" xmlns:xlink="http://www.w3.org/1999/xlink" xmlns:svgjs="http://svgjs.com/svgjs" width="500" height="500"><svg viewBox="0 0 500 500" xmlns="http://www.w3.org/2000/svg" xmlns:bx="https://boxy-svg.com">
  <path d="M 126.386 -385.256 L 197.339 -259.425 L 55.432 -259.425 L 126.386 -385.256 Z" style="fill: rgb(216, 216, 216); stroke: rgb(0, 0, 0);" transform="matrix(1, 0, 0, -1, 7.105427357601002e-15, 0)" bx:shape="triangle 55.432 -385.256 141.907 125.831 0.5 0 1@6ba32ff3"></path>
  <path style="fill: rgb(216, 216, 216); stroke: rgb(0, 0, 0);" d="M 43.792 207.317 L 201.22 207.317 L 210.089 207.317 L 215.632 210.643 L 223.947 217.295 L 225.055 224.501 L 227.273 233.37 L 224.501 246.674 L 220.621 257.761 L 219.512 266.075 L 213.415 274.945 L 202.882 283.259 L 193.459 289.911 L 187.916 296.563 L 183.481 306.541 C 183.481 306.541 182.927 313.193 182.373 313.747 C 181.819 314.301 180.155 320.399 180.155 320.953 C 180.155 321.507 177.384 332.04 177.384 332.594 C 177.384 333.148 177.384 342.572 177.384 343.681 C 177.384 344.79 177.384 350.887 177.938 351.996 C 178.492 353.105 182.373 359.202 182.373 359.202 L 185.698 366.408 C 185.698 366.408 187.916 375.277 187.916 375.831 C 187.916 376.385 191.796 385.255 191.796 385.255 L 198.448 388.581 L 327.051 387.472 L 325.388 308.758 L 273.282 308.758 L 266.63 307.65 C 266.63 307.65 259.978 304.324 259.424 303.769 C 258.87 303.214 252.217 297.672 251.663 296.563 C 251.109 295.454 251.109 286.031 253.88 283.814 C 256.651 281.597 259.978 273.282 260.532 273.282 C 261.086 273.282 266.63 266.075 268.847 263.858 C 271.064 261.641 279.933 254.435 282.151 253.326 C 284.369 252.217 294.346 243.348 297.118 241.131 C 299.89 238.914 304.324 232.816 306.541 231.153 C 308.758 229.49 317.627 212.86 318.182 211.752 C 318.737 210.644 327.051 194.568 327.605 191.242 C 328.159 187.916 327.605 169.623 327.051 167.406 C 326.497 165.189 319.845 152.439 318.182 150.776 C 316.519 149.113 298.226 138.581 298.226 138.581 L 269.401 129.712 L 244.457 123.614 L 207.317 121.397 L 45.455 122.506 L 43.792 207.317 Z" transform="matrix(1, 0, 0, 1, 7.105427357601002e-15, 0)"></path>
</svg><style>@media (prefers-color-scheme: light) { :root { filter: none; } }
@media (prefers-color-scheme: dark) { :root { filter: contrast(0.3846153846153846) brightness(4.5); } }
</style></svg>